<svg xmlns="http://www.w3.org/2000/svg" version="1.1" xmlns:xlink="http://www.w3.org/1999/xlink" xmlns:svgjs="http://svgjs.dev/svgjs" width="1025" height="1024"><svg width="1025" height="1024" viewBox="0 0 1025 1024" fill="none" xmlns="http://www.w3.org/2000/svg">
<rect x="1" width="1024" height="1024" rx="180" fill="#304FDD"></rect>
<path d="M0.947291 787.2C0.947291 794.269 6.68236 800.021 13.7481 799.798C99.6284 797.081 181.324 767.106 242.315 715.647C306.33 661.636 342.293 588.382 342.293 512C342.293 435.618 306.33 362.364 242.315 308.353C181.324 256.894 99.6285 226.919 13.7481 224.202C6.68242 223.979 0.947328 229.731 0.947327 236.8L0.947279 512L0.947291 787.2Z" fill="white"></path>
<path d="M342.248 787.2C342.248 794.269 347.983 800.021 355.049 799.798C440.929 797.081 522.625 767.106 583.616 715.647C647.631 661.636 683.594 588.382 683.594 512C683.594 435.618 647.631 362.364 583.616 308.353C522.625 256.894 440.929 226.919 355.049 224.202C347.983 223.979 342.248 229.731 342.248 236.8L342.248 512L342.248 787.2Z" fill="white"></path>
<path d="M683.647 787.2C683.647 794.269 689.382 800.021 696.447 799.798C782.328 797.081 864.023 767.106 925.014 715.647C989.029 661.636 1024.99 588.382 1024.99 512C1024.99 435.618 989.029 362.364 925.014 308.353C864.023 256.894 782.328 226.919 696.447 224.202C689.382 223.979 683.647 229.731 683.647 236.8L683.646 512L683.647 787.2Z" fill="white"></path>
</svg><style>@media (prefers-color-scheme: light) { :root { filter: none; } }
@media (prefers-color-scheme: dark) { :root { filter: none; } }
</style></svg>